<mxfile host="Electron" agent="Mozilla/5.0 (Windows NT 10.0; Win64; x64) AppleWebKit/537.36 (KHTML, like Gecko) draw.io/25.0.2 Chrome/128.0.6613.186 Electron/32.2.5 Safari/537.36" version="25.0.2">
  <diagram name="Page-1" id="Q9YSqws44emZLyLD-KAk">
    <mxGraphModel dx="574" dy="342" grid="1" gridSize="10" guides="1" tooltips="1" connect="1" arrows="1" fold="1" page="1" pageScale="1" pageWidth="827" pageHeight="1169" math="0" shadow="0">
      <root>
        <mxCell id="0" />
        <mxCell id="1" parent="0" />
        <mxCell id="6TNS7I3jeI-tu2PH8_33-14" style="edgeStyle=orthogonalEdgeStyle;rounded=0;orthogonalLoop=1;jettySize=auto;html=1;exitX=1;exitY=0.5;exitDx=0;exitDy=0;exitPerimeter=0;entryX=0;entryY=0.5;entryDx=0;entryDy=0;" edge="1" parent="1" source="6TNS7I3jeI-tu2PH8_33-1" target="6TNS7I3jeI-tu2PH8_33-2">
          <mxGeometry relative="1" as="geometry" />
        </mxCell>
        <mxCell id="6TNS7I3jeI-tu2PH8_33-21" style="edgeStyle=orthogonalEdgeStyle;rounded=0;orthogonalLoop=1;jettySize=auto;html=1;exitX=0.839;exitY=0.049;exitDx=0;exitDy=0;exitPerimeter=0;startArrow=classic;startFill=1;endArrow=none;endFill=0;" edge="1" parent="1" source="6TNS7I3jeI-tu2PH8_33-1">
          <mxGeometry relative="1" as="geometry">
            <mxPoint x="359" y="291" as="targetPoint" />
            <mxPoint x="160.29999999999995" y="405.35" as="sourcePoint" />
            <Array as="points">
              <mxPoint x="160" y="371" />
              <mxPoint x="360" y="371" />
              <mxPoint x="360" y="291" />
            </Array>
          </mxGeometry>
        </mxCell>
        <mxCell id="6TNS7I3jeI-tu2PH8_33-1" value="&lt;font face=&quot;Times New Roman&quot;&gt;Memo&lt;br&gt;Table&lt;/font&gt;" style="shape=cylinder3;whiteSpace=wrap;html=1;boundedLbl=1;backgroundOutline=1;size=15;fillColor=#E6E6E6;" vertex="1" parent="1">
          <mxGeometry x="110" y="400" width="60" height="80" as="geometry" />
        </mxCell>
        <mxCell id="6TNS7I3jeI-tu2PH8_33-27" style="edgeStyle=orthogonalEdgeStyle;rounded=0;orthogonalLoop=1;jettySize=auto;html=1;exitX=1;exitY=0.5;exitDx=0;exitDy=0;entryX=0.75;entryY=1;entryDx=0;entryDy=0;" edge="1" parent="1" source="6TNS7I3jeI-tu2PH8_33-2" target="6TNS7I3jeI-tu2PH8_33-26">
          <mxGeometry relative="1" as="geometry">
            <Array as="points">
              <mxPoint x="370" y="440" />
              <mxPoint x="370" y="410" />
            </Array>
          </mxGeometry>
        </mxCell>
        <mxCell id="6TNS7I3jeI-tu2PH8_33-2" value="&lt;font face=&quot;Times New Roman&quot;&gt;Adjust&lt;/font&gt;&lt;div&gt;&lt;font face=&quot;Times New Roman&quot;&gt;Process&lt;/font&gt;&lt;/div&gt;" style="rounded=1;whiteSpace=wrap;html=1;" vertex="1" parent="1">
          <mxGeometry x="230" y="410" width="80" height="60" as="geometry" />
        </mxCell>
        <mxCell id="6TNS7I3jeI-tu2PH8_33-22" style="edgeStyle=orthogonalEdgeStyle;rounded=0;orthogonalLoop=1;jettySize=auto;html=1;exitX=1;exitY=0.25;exitDx=0;exitDy=0;entryX=0;entryY=0.5;entryDx=0;entryDy=0;" edge="1" parent="1" target="6TNS7I3jeI-tu2PH8_33-26">
          <mxGeometry relative="1" as="geometry">
            <mxPoint x="229.99999999999994" y="290.5" as="sourcePoint" />
            <mxPoint x="439.7600000000001" y="325.76" as="targetPoint" />
          </mxGeometry>
        </mxCell>
        <mxCell id="6TNS7I3jeI-tu2PH8_33-28" style="edgeStyle=orthogonalEdgeStyle;rounded=0;orthogonalLoop=1;jettySize=auto;html=1;exitX=1;exitY=0.5;exitDx=0;exitDy=0;entryX=0.25;entryY=1;entryDx=0;entryDy=0;fontStyle=1" edge="1" parent="1" source="6TNS7I3jeI-tu2PH8_33-12" target="6TNS7I3jeI-tu2PH8_33-26">
          <mxGeometry relative="1" as="geometry">
            <Array as="points">
              <mxPoint x="230" y="300" />
              <mxPoint x="320" y="300" />
              <mxPoint x="320" y="350" />
            </Array>
          </mxGeometry>
        </mxCell>
        <mxCell id="6TNS7I3jeI-tu2PH8_33-32" value="&lt;font face=&quot;Times New Roman&quot;&gt;&lt;i&gt;R&lt;sub&gt;x&lt;/sub&gt;&lt;/i&gt;&lt;/font&gt;" style="edgeLabel;html=1;align=center;verticalAlign=middle;resizable=0;points=[];" vertex="1" connectable="0" parent="6TNS7I3jeI-tu2PH8_33-28">
          <mxGeometry x="-0.8911" y="-1" relative="1" as="geometry">
            <mxPoint x="12" y="9" as="offset" />
          </mxGeometry>
        </mxCell>
        <mxCell id="6TNS7I3jeI-tu2PH8_33-12" value="&lt;font face=&quot;Times New Roman&quot;&gt;Original Formula &lt;i&gt;f(x)&lt;/i&gt;&lt;/font&gt;" style="rounded=1;whiteSpace=wrap;html=1;" vertex="1" parent="1">
          <mxGeometry x="80" y="280" width="150" height="30" as="geometry" />
        </mxCell>
        <mxCell id="6TNS7I3jeI-tu2PH8_33-13" style="edgeStyle=orthogonalEdgeStyle;rounded=0;orthogonalLoop=1;jettySize=auto;html=1;exitX=0.5;exitY=0;exitDx=0;exitDy=0;exitPerimeter=0;entryX=0.4;entryY=1;entryDx=0;entryDy=0;entryPerimeter=0;startArrow=classic;startFill=1;endArrow=none;endFill=0;" edge="1" parent="1" source="6TNS7I3jeI-tu2PH8_33-1" target="6TNS7I3jeI-tu2PH8_33-12">
          <mxGeometry relative="1" as="geometry" />
        </mxCell>
        <mxCell id="6TNS7I3jeI-tu2PH8_33-18" style="edgeStyle=orthogonalEdgeStyle;rounded=0;orthogonalLoop=1;jettySize=auto;html=1;exitX=1;exitY=0;exitDx=0;exitDy=52.5;exitPerimeter=0;entryX=1;entryY=0.5;entryDx=0;entryDy=0;" edge="1" parent="1" source="6TNS7I3jeI-tu2PH8_33-1" target="6TNS7I3jeI-tu2PH8_33-26">
          <mxGeometry relative="1" as="geometry">
            <mxPoint x="440" y="440" as="targetPoint" />
            <Array as="points">
              <mxPoint x="210" y="453" />
              <mxPoint x="210" y="480" />
              <mxPoint x="440" y="480" />
            </Array>
          </mxGeometry>
        </mxCell>
        <mxCell id="6TNS7I3jeI-tu2PH8_33-24" style="edgeStyle=orthogonalEdgeStyle;rounded=0;orthogonalLoop=1;jettySize=auto;html=1;exitX=0;exitY=0.5;exitDx=0;exitDy=0;entryX=0;entryY=0.625;entryDx=0;entryDy=0;entryPerimeter=0;startArrow=classic;startFill=1;" edge="1" parent="1" source="6TNS7I3jeI-tu2PH8_33-12" target="6TNS7I3jeI-tu2PH8_33-1">
          <mxGeometry relative="1" as="geometry" />
        </mxCell>
        <mxCell id="6TNS7I3jeI-tu2PH8_33-25" value="" style="endArrow=none;html=1;rounded=0;endFill=0;" edge="1" parent="1">
          <mxGeometry width="50" height="50" relative="1" as="geometry">
            <mxPoint x="40" y="369" as="sourcePoint" />
            <mxPoint x="60" y="369" as="targetPoint" />
          </mxGeometry>
        </mxCell>
        <mxCell id="6TNS7I3jeI-tu2PH8_33-29" style="edgeStyle=orthogonalEdgeStyle;rounded=0;orthogonalLoop=1;jettySize=auto;html=1;exitX=0.5;exitY=0;exitDx=0;exitDy=0;" edge="1" parent="1" source="6TNS7I3jeI-tu2PH8_33-26">
          <mxGeometry relative="1" as="geometry">
            <mxPoint x="500" y="380" as="targetPoint" />
          </mxGeometry>
        </mxCell>
        <mxCell id="6TNS7I3jeI-tu2PH8_33-26" value="" style="shape=trapezoid;perimeter=trapezoidPerimeter;whiteSpace=wrap;html=1;fixedSize=1;rotation=90;" vertex="1" parent="1">
          <mxGeometry x="380" y="350" width="120" height="60" as="geometry" />
        </mxCell>
        <mxCell id="6TNS7I3jeI-tu2PH8_33-30" value="&lt;font face=&quot;Times New Roman&quot;&gt;MUX&lt;/font&gt;" style="text;html=1;align=center;verticalAlign=middle;resizable=0;points=[];autosize=1;strokeColor=none;fillColor=none;" vertex="1" parent="1">
          <mxGeometry x="415" y="365" width="50" height="30" as="geometry" />
        </mxCell>
        <mxCell id="6TNS7I3jeI-tu2PH8_33-31" value="&lt;i&gt;&lt;font face=&quot;Times New Roman&quot;&gt;x&lt;/font&gt;&lt;/i&gt;" style="text;html=1;align=center;verticalAlign=middle;resizable=0;points=[];autosize=1;strokeColor=none;fillColor=none;" vertex="1" parent="1">
          <mxGeometry x="20" y="353" width="30" height="30" as="geometry" />
        </mxCell>
        <mxCell id="6TNS7I3jeI-tu2PH8_33-33" value="&lt;font face=&quot;Times New Roman&quot;&gt;end of process&lt;/font&gt;" style="text;html=1;align=center;verticalAlign=middle;resizable=0;points=[];autosize=1;strokeColor=none;fillColor=none;" vertex="1" parent="1">
          <mxGeometry x="260" y="270" width="90" height="30" as="geometry" />
        </mxCell>
        <mxCell id="6TNS7I3jeI-tu2PH8_33-34" value="&lt;font face=&quot;Times New Roman&quot;&gt;(&lt;i style=&quot;&quot;&gt;x&lt;/i&gt;, &lt;i style=&quot;&quot;&gt;R&lt;/i&gt;&lt;sub style=&quot;font-style: italic; vertical-align: sub;&quot;&gt;x&lt;/sub&gt;)&lt;/font&gt;" style="text;html=1;align=center;verticalAlign=middle;resizable=0;points=[];autosize=1;strokeColor=none;fillColor=none;" vertex="1" parent="1">
          <mxGeometry x="80" y="328" width="50" height="30" as="geometry" />
        </mxCell>
        <mxCell id="6TNS7I3jeI-tu2PH8_33-35" value="&lt;font face=&quot;Times New Roman&quot;&gt;(&lt;i&gt;m&lt;/i&gt;, &lt;i&gt;R&lt;sub&gt;m&lt;/sub&gt;&lt;/i&gt;)&lt;/font&gt;" style="text;html=1;align=center;verticalAlign=middle;resizable=0;points=[];autosize=1;strokeColor=none;fillColor=none;" vertex="1" parent="1">
          <mxGeometry x="75" y="358" width="60" height="30" as="geometry" />
        </mxCell>
        <mxCell id="6TNS7I3jeI-tu2PH8_33-36" value="" style="endArrow=openThin;html=1;rounded=0;endFill=0;endSize=3;" edge="1" parent="1">
          <mxGeometry width="50" height="50" relative="1" as="geometry">
            <mxPoint x="104.80000000000001" y="350" as="sourcePoint" />
            <mxPoint x="104.80000000000001" y="370" as="targetPoint" />
          </mxGeometry>
        </mxCell>
        <mxCell id="6TNS7I3jeI-tu2PH8_33-37" value="&lt;i&gt;&lt;font face=&quot;Times New Roman&quot;&gt;R&lt;sub&gt;m&lt;/sub&gt;&#39;&lt;/font&gt;&lt;/i&gt;" style="text;html=1;align=center;verticalAlign=middle;resizable=0;points=[];autosize=1;strokeColor=none;fillColor=none;" vertex="1" parent="1">
          <mxGeometry x="334" y="394" width="40" height="30" as="geometry" />
        </mxCell>
        <mxCell id="6TNS7I3jeI-tu2PH8_33-38" value="&lt;i&gt;&lt;font face=&quot;Times New Roman&quot;&gt;R&lt;sub&gt;m&lt;/sub&gt;&lt;/font&gt;&lt;/i&gt;&lt;div&gt;&lt;i&gt;&lt;font face=&quot;Times New Roman&quot;&gt;x&lt;/font&gt;&lt;/i&gt;&lt;/div&gt;&lt;div&gt;&lt;i&gt;&lt;font face=&quot;Times New Roman&quot;&gt;m&lt;/font&gt;&lt;/i&gt;&lt;/div&gt;" style="text;html=1;align=center;verticalAlign=middle;resizable=0;points=[];autosize=1;strokeColor=none;fillColor=none;" vertex="1" parent="1">
          <mxGeometry x="180" y="379" width="40" height="60" as="geometry" />
        </mxCell>
        <mxCell id="6TNS7I3jeI-tu2PH8_33-39" value="&lt;i&gt;&lt;font face=&quot;Times New Roman&quot;&gt;R&lt;/font&gt;&lt;/i&gt;" style="text;html=1;align=center;verticalAlign=middle;resizable=0;points=[];autosize=1;strokeColor=none;fillColor=none;" vertex="1" parent="1">
          <mxGeometry x="495" y="365" width="30" height="30" as="geometry" />
        </mxCell>
      </root>
    </mxGraphModel>
  </diagram>
</mxfile>
